<?xml version="1.0" encoding="UTF-8"?>
<svg id="Layer_1" data-name="Layer 1" xmlns="http://www.w3.org/2000/svg" viewBox="0 0 5839.292 1210.734">
  <defs>
    <style>
      .cls-1 {
        fill: none;
        stroke: #fff;
        stroke-miterlimit: 10;
        stroke-width: 263px;
      }

      .cls-2 {
        fill: #ee342e;
      }

      .cls-3 {
        fill: #fff;
      }
    </style>
  </defs>
  <g id="_3" data-name="3">
    <circle class="cls-2" cx="4272.048" cy="698.734" r="512"/>
    <path class="cls-3" d="M4184.826,806.882c0,21.481,3.457,39.259,10.37,53.333,12.84,25.927,36.173,38.889,70.001,38.889,20.741,0,38.827-7.099,54.259-21.297,15.432-14.197,23.148-34.629,23.148-61.295,0-35.309-14.321-58.889-42.964-70.741-16.296-6.666-41.975-10-77.037-10v-75.555c34.321-.494,58.271-3.828,71.852-10,23.456-10.371,35.185-31.358,35.185-62.963,0-20.494-5.987-37.16-17.962-50-11.975-12.84-28.828-19.259-50.556-19.259-24.938,0-43.272,7.901-55,23.703-11.728,15.803-17.345,36.914-16.852,63.333h-98.518c.988-26.666,5.555-51.975,13.703-75.926,8.641-20.987,22.222-40.37,40.74-58.147,13.827-12.593,30.247-22.223,49.259-28.889,19.012-6.666,42.346-10,70.001-10,51.358,0,92.778,13.271,124.259,39.814,31.481,26.543,47.222,62.161,47.222,106.852,0,31.605-9.383,58.272-28.149,80.001-11.851,13.581-24.197,22.84-37.037,27.778,9.63,0,23.458,8.272,41.482,24.815,26.913,24.938,40.369,59.012,40.369,102.221,0,45.433-15.74,85.371-47.221,119.815-31.482,34.445-78.087,51.668-139.816,51.668-76.049,0-128.889-24.815-158.519-74.445-15.555-26.42-24.197-60.988-25.925-103.704h103.704Z"/>
  </g>
  <g id="_2" data-name="2">
    <circle class="cls-2" cx="3128.048" cy="698.734" r="512"/>
    <path class="cls-3" d="M2965.64,866.141c15.062-35.802,50.617-73.703,106.667-113.703,48.642-34.815,80.123-59.754,94.445-74.816,21.975-23.456,32.963-49.135,32.963-77.037,0-22.716-6.296-41.605-18.888-56.667-12.593-15.062-30.618-22.592-54.074-22.592-32.099,0-53.951,11.975-65.557,35.925-6.666,13.827-10.617,35.802-11.851,65.926h-102.592c1.728-45.68,10-82.592,24.814-110.741,28.149-53.58,78.148-80.37,150-80.37,56.791,0,101.976,15.741,135.556,47.222,33.58,31.481,50.371,73.148,50.371,125,0,39.753-11.852,75.061-35.556,105.926-15.556,20.494-41.111,43.333-76.667,68.519l-42.222,30c-26.42,18.765-44.506,32.346-54.26,40.74-9.753,8.395-17.963,18.149-24.629,29.259h234.444v92.963h-367.778c.988-38.518,9.259-73.704,24.815-105.556Z"/>
  </g>
  <g>
    <line class="cls-1" x1="4918.229" y1="289.671" x2="5698.095" y2="1069.538"/>
    <polyline class="cls-1" points="5698.095 428.53 5698.095 1069.538 5057.087 1069.538"/>
  </g>
  <g>
    <path class="cls-3" d="M181.729,582.924c-36.59,0-65.798-6.083-87.628-18.25-21.834-12.167-37.625-29.467-47.373-51.904-9.752-22.433-14.626-49.186-14.626-80.25v-229.101h76.885v234.796c0,27.958,6.73,48.368,20.192,61.223,13.461,12.859,30.976,19.286,52.551,19.286,14.323,0,27.008-2.803,38.054-8.414,11.042-5.606,19.715-14.323,26.017-26.146,6.298-11.819,9.449-27.137,9.449-45.949v-234.796h76.367v231.689c0,30.203-4.919,56.394-14.756,78.567-9.837,22.178-25.758,39.264-47.762,51.257-22.004,11.997-51.127,17.991-87.369,17.991Z"/>
    <path class="cls-3" d="M397.368,661.103v-351.029h75.849l.259,38.572c3.968-6.383,8.842-12.207,14.626-17.474,5.78-5.262,12.208-9.877,19.286-13.85,7.075-3.968,14.756-7.03,23.04-9.19,8.284-2.156,16.997-3.236,26.146-3.236,19.844,0,37.537,4.878,53.069,14.626,15.532,9.752,27.74,24.767,36.63,45.043,8.887,20.281,13.332,46.039,13.332,77.273,0,32.448-4.789,59.067-14.367,79.862-9.578,20.798-22.74,36.201-39.478,46.208-16.742,10.007-35.639,15.014-56.693,15.014-8.631,0-16.742-1.165-24.333-3.495-7.597-2.33-14.626-5.566-21.098-9.708-6.472-4.142-12.256-8.931-17.344-14.368-5.093-5.436-9.538-11.346-13.332-17.732v123.481h-75.59ZM530.946,527.525c16.394,0,30.158-6.815,41.29-20.451,11.132-13.631,16.697-35.117,16.697-64.459,0-26.057-5.307-46.378-15.92-60.964-10.614-14.582-24.637-21.875-42.066-21.875-19.504,0-34.042,7.896-43.62,23.687-9.578,15.791-14.367,35.51-14.367,59.152,0,14.845,2.111,28.735,6.342,41.678,4.227,12.944,10.614,23.388,19.157,31.324,8.542,7.94,19.371,11.908,32.488,11.908Z"/>
    <path class="cls-3" d="M818.812,580.594c-23.646,0-41.896-3.018-54.751-9.061-12.858-6.039-21.745-14.497-26.664-25.369-4.918-10.873-7.378-23.469-7.378-37.795v-145.745h-43.49v-52.551h45.82l19.156-80.768h53.845v80.509h59.541v52.81h-59.541l.518,142.638c0,6.561.817,11.435,2.459,14.626,1.638,3.196,4.227,5.267,7.766,6.213,3.535.95,8.065,1.423,13.591,1.423h35.983v46.597c-3.624,1.553-9.061,3.021-16.309,4.401-7.249,1.379-17.434,2.071-30.547,2.071Z"/>
    <path class="cls-3" d="M1026.939,582.924c-26.235,0-49.056-5.606-68.472-16.827-19.415-11.216-34.43-27.092-45.043-47.632-10.614-20.536-15.92-44.87-15.92-73.002s5.307-52.721,15.92-73.778c10.614-21.053,25.628-37.447,45.043-49.186,19.416-11.734,42.326-17.603,68.73-17.603s49.271,5.784,68.601,17.344c19.327,11.564,34.256,27.829,44.785,48.797,10.525,20.969,15.792,45.78,15.792,74.425,0,26.923-5.137,50.698-15.403,71.319-10.27,20.625-25.026,36.804-44.267,48.539-19.246,11.738-42.5,17.603-69.766,17.603ZM1027.198,526.749c13.287,0,23.986-3.883,32.1-11.649,8.11-7.766,13.979-17.991,17.603-30.676,3.624-12.685,5.437-26.534,5.437-41.548,0-14.149-1.643-27.525-4.919-40.125-3.28-12.596-8.975-22.78-17.085-30.546-8.114-7.766-19.156-11.649-33.135-11.649-13.292,0-24.035,3.669-32.229,11.002-8.199,7.337-14.197,17.26-17.992,29.771-3.798,12.515-5.695,26.364-5.695,41.549,0,13.979,1.723,27.399,5.177,40.254,3.45,12.858,9.23,23.343,17.344,31.453,8.11,8.114,19.242,12.167,33.395,12.167Z"/>
    <path class="cls-3" d="M1263.026,577.746l-86.722-267.673h66.789l51.257,165.937h1.812l49.186-165.937h54.104l49.703,165.937h2.071l49.704-165.937h68.342l-88.016,267.673h-60.317l-49.704-162.053-49.962,162.053h-58.246Z"/>
    <path class="cls-3" d="M1609.136,577.746v-267.673h74.296v37.795c4.142-6.557,9.534-12.899,16.18-19.027,6.642-6.124,15.055-11.172,25.24-15.144,10.181-3.968,22.263-5.954,36.242-5.954,16.394,0,31.711,3.195,45.949,9.578,14.238,6.387,25.758,16.438,34.56,30.159s13.202,31.626,13.202,53.716v176.55h-75.59v-167.23c0-14.497-4.36-25.37-13.073-32.618-8.717-7.248-19.201-10.873-31.453-10.873-8.284,0-16.268,1.468-23.945,4.401-7.681,2.937-13.938,7.337-18.768,13.203-4.834,5.869-7.249,13.117-7.249,21.745v171.373h-75.59Z"/>
    <path class="cls-3" d="M2145.507,580.335c-27.44,0-50.091-4.098-67.954-12.296-17.862-8.195-31.109-19.545-39.737-34.042-8.632-14.497-12.943-31.234-12.943-50.221,0-17.085,3.495-32.229,10.484-45.432,6.989-13.203,17.474-25.37,31.453-36.501s31.408-22.218,52.292-33.265c-8.802-9.837-16.568-18.982-23.298-27.44-6.731-8.454-11.997-17.126-15.791-26.017-3.798-8.887-5.695-18.853-5.695-29.9,0-16.567,4.66-31.453,13.979-44.655,9.319-13.202,22.263-23.642,38.831-31.323,16.568-7.677,35.724-11.52,57.469-11.52,21.228,0,40.514,3.41,57.858,10.225,17.344,6.82,31.149,16.309,41.419,28.476,10.266,12.167,15.403,26.364,15.403,42.584,0,8.284-1.727,16.612-5.178,24.981-3.454,8.373-8.587,16.742-15.403,25.111-6.819,8.373-15.403,16.697-25.757,24.981-10.355,8.284-22.522,16.568-36.501,24.852l58.505,68.86c2.415-5.348,5.347-12.252,8.802-20.71,3.45-8.454,6.73-17.991,9.837-28.605s5.347-21.701,6.73-33.265h77.403c-4.316,15.362-10.314,30.288-17.992,44.785-7.681,14.497-15.88,28.521-24.593,42.066-8.717,13.55-16.871,26.624-24.463,39.219l74.037,86.463h-86.722l-32.1-36.501c-20.022,14.497-40.473,24.637-61.353,30.417-20.883,5.784-40.558,8.672-59.022,8.672ZM2164.146,522.607c10.007,0,21.139-2.2,33.395-6.601,12.252-4.401,22.95-10.828,32.1-19.286l-73.52-85.168c-13.809,7.766-25.499,17.389-35.077,28.864-9.578,11.479-13.421,24.552-11.52,39.219,1.035,9.319,4.356,17.175,9.966,23.558,5.606,6.387,12.381,11.22,20.321,14.497,7.936,3.28,16.05,4.918,24.334,4.918ZM2185.114,340.879c12.426-7.766,22.133-14.885,29.123-21.356,6.989-6.472,11.863-12.726,14.626-18.769,2.759-6.039,4.142-12.167,4.142-18.38,0-9.145-2.116-16.608-6.342-22.392-4.231-5.78-9.752-10.007-16.568-12.685-6.82-2.674-14.108-3.839-21.875-3.495-12.256.348-21.875,4.013-28.864,11.002-6.99,6.989-10.484,15.402-10.484,25.24,0,5.695,1.206,11.479,3.625,17.344,2.415,5.869,5.565,11.52,9.449,16.956,3.883,5.437,8.065,10.573,12.555,15.403l10.614,11.131Z"/>
    <path class="cls-3" d="M113.128,1199.037v-307.021H.001v-67.306h299.514v67.306h-110.538v307.021h-75.849Z"/>
    <path class="cls-3" d="M341.451,1199.037v-384.683h75.073v155.582c4.312-6.213,9.748-12.382,16.309-18.51,6.557-6.124,14.756-11.261,24.593-15.402,9.837-4.143,21.83-6.213,35.983-6.213,17.085,0,32.658,3.324,46.726,9.966,14.064,6.646,25.369,16.269,33.912,28.864,8.542,12.6,12.814,27.958,12.814,46.079v184.316h-75.849v-173.185c0-12.078-4.36-21.357-13.073-27.829-8.717-6.472-19.286-9.707-31.712-9.707-8.114,0-15.965,1.468-23.557,4.4-7.596,2.937-13.765,7.378-18.509,13.332-4.749,5.954-7.119,13.332-7.119,22.134v170.854h-75.59Z"/>
    <path class="cls-3" d="M771.177,1204.215c-26.579,0-49.922-5.566-70.025-16.697-20.107-11.132-35.769-26.878-46.985-47.244-11.221-20.362-16.827-44.352-16.827-71.966,0-26.749,5.133-50.868,15.403-72.354,10.266-21.486,25.066-38.483,44.396-50.998,19.326-12.511,42.713-18.768,70.154-18.768,27.267,0,50.132,5.739,68.601,17.215,18.465,11.479,32.444,27.439,41.937,47.891,9.489,20.451,14.238,44.053,14.238,70.802v20.45h-179.916c0,13.636,2.241,25.499,6.731,35.595,4.486,10.097,11.002,17.862,19.544,23.299,8.543,5.437,18.854,8.154,30.936,8.154,12.943,0,24.245-2.759,33.912-8.284,9.663-5.521,16.394-14.581,20.192-27.182h68.342c-3.106,18.987-10.703,35.207-22.781,48.668-12.082,13.462-26.752,23.731-44.008,30.806-17.26,7.074-35.207,10.614-53.845,10.614ZM712.154,1037.502h109.244c0-10.699-2.03-20.491-6.083-29.382-4.057-8.887-10.096-15.962-18.121-21.228-8.025-5.263-18.081-7.896-30.159-7.896-11.564,0-21.446,2.807-29.641,8.413-8.199,5.61-14.497,12.903-18.897,21.874-4.401,8.976-6.517,18.38-6.343,28.218Z"/>
    <path class="cls-3" d="M1071.465,1199.037v-374.327h135.648c49.012,0,85.383,8.413,109.114,25.239,23.727,16.827,35.595,41.205,35.595,73.131,0,18.47-4.749,34.56-14.238,48.28-9.493,13.72-26.405,25.673-50.739,35.854,15.702,3.972,28.387,9.319,38.054,16.05,9.663,6.73,17.085,14.197,22.263,22.393,5.177,8.198,8.713,16.741,10.614,25.628,1.897,8.891,2.848,17.647,2.848,26.275,0,34.519-11.738,60.059-35.207,76.626-23.472,16.567-60.835,24.852-112.091,24.852h-141.861ZM1146.796,979.515h72.225c7.766,0,15.229-.906,22.392-2.719,7.16-1.812,13.546-4.615,19.157-8.413,5.606-3.794,10.051-8.672,13.332-14.626,3.276-5.954,4.919-12.984,4.919-21.098,0-16.221-6.083-28.517-18.25-36.89-12.167-8.369-27.744-12.555-46.726-12.555h-67.048v96.3ZM1146.796,1140.532h68.083c22.607,0,39.777-4.57,51.516-13.72,11.734-9.146,17.603-21.397,17.603-36.76,0-11.043-2.848-20.321-8.542-27.829-5.695-7.507-13.421-13.158-23.169-16.956-9.752-3.794-20.839-5.695-33.265-5.695h-72.225v100.96Z"/>
    <path class="cls-3" d="M1416.278,1199.037v-267.673h72.743v63.424c4.312-13.632,10.396-25.584,18.25-35.854,7.851-10.267,17.385-18.291,28.605-24.075,11.216-5.78,23.901-8.672,38.054-8.672,2.415,0,4.7.129,6.86.388,2.156.259,3.753.647,4.789,1.165v71.966c-1.553-.688-3.41-1.12-5.566-1.294-2.16-.17-4.102-.344-5.825-.518-14.844-1.206-27.529-.776-38.054,1.294-10.529,2.071-19.072,5.61-25.628,10.614-6.561,5.007-11.305,11.131-14.238,18.38-2.937,7.248-4.401,15.362-4.401,24.333v146.521h-75.59Z"/>
    <path class="cls-3" d="M1745.819,1204.215c-26.235,0-49.056-5.606-68.472-16.827-19.415-11.216-34.43-27.092-45.043-47.632-10.614-20.536-15.92-44.87-15.92-73.002s5.307-52.721,15.92-73.778c10.614-21.054,25.628-37.447,45.043-49.186,19.416-11.734,42.326-17.603,68.73-17.603s49.271,5.783,68.601,17.344c19.327,11.564,34.256,27.829,44.785,48.797,10.525,20.969,15.792,45.78,15.792,74.426,0,26.923-5.137,50.698-15.403,71.319-10.27,20.624-25.026,36.804-44.267,48.538-19.246,11.738-42.5,17.604-69.766,17.604ZM1746.078,1148.039c13.287,0,23.986-3.883,32.1-11.648,8.11-7.767,13.979-17.992,17.603-30.677s5.437-26.534,5.437-41.549c0-14.148-1.643-27.525-4.919-40.125-3.28-12.596-8.975-22.78-17.085-30.547-8.114-7.766-19.156-11.648-33.135-11.648-13.292,0-24.035,3.668-32.229,11.002-8.199,7.337-14.197,17.259-17.992,29.77-3.798,12.515-5.695,26.364-5.695,41.549,0,13.979,1.723,27.4,5.177,40.255,3.45,12.858,9.23,23.343,17.344,31.453,8.11,8.113,19.242,12.166,33.395,12.166Z"/>
    <path class="cls-3" d="M1927.021,1199.037v-267.673h74.296v37.795c4.142-6.557,9.534-12.898,16.18-19.026,6.642-6.124,15.055-11.172,25.24-15.145,10.181-3.968,22.263-5.954,36.242-5.954,16.394,0,31.711,3.196,45.949,9.579,14.238,6.387,25.758,16.438,34.56,30.158,8.802,13.72,13.202,31.627,13.202,53.716v176.55h-75.59v-167.23c0-14.497-4.36-25.369-13.073-32.618-8.717-7.248-19.201-10.872-31.453-10.872-8.284,0-16.268,1.468-23.945,4.4-7.681,2.937-13.938,7.338-18.768,13.202-4.834,5.869-7.249,13.118-7.249,21.745v171.373h-75.59Z"/>
    <path class="cls-3" d="M2206.597,1199.037l102.772-139.531-93.97-128.142h79.214l55.657,75.073,55.14-75.073h79.214l-94.747,128.142,103.031,139.531h-79.215l-63.941-86.98-63.941,86.98h-79.214Z"/>
  </g>
  <rect class="cls-3" x=".001" width="5839.29" height="32.229"/>
</svg>